<mxfile host="Electron" modified="2023-12-03T04:59:42.035Z" agent="Mozilla/5.0 (Windows NT 10.0; Win64; x64) AppleWebKit/537.36 (KHTML, like Gecko) draw.io/21.2.8 Chrome/112.0.5615.165 Electron/24.2.0 Safari/537.36" etag="w9mVTv64hOIc-_y73nLQ" version="21.2.8" type="device">
  <diagram name="Page-1" id="U2sgMt6IpICBFfTSHYp9">
    <mxGraphModel dx="1567" dy="705" grid="1" gridSize="10" guides="1" tooltips="1" connect="1" arrows="1" fold="1" page="1" pageScale="1" pageWidth="827" pageHeight="1169" math="0" shadow="0">
      <root>
        <mxCell id="0" />
        <mxCell id="1" parent="0" />
        <mxCell id="hcL190hoLd-GWTFzOgWW-1" value="" style="shape=cylinder3;whiteSpace=wrap;html=1;boundedLbl=1;backgroundOutline=1;size=15;rotation=0;fillColor=#dae8fc;strokeColor=#131416;" vertex="1" parent="1">
          <mxGeometry x="185" y="160" width="85" height="190" as="geometry" />
        </mxCell>
        <mxCell id="hcL190hoLd-GWTFzOgWW-2" value="" style="shape=cylinder3;whiteSpace=wrap;html=1;boundedLbl=1;backgroundOutline=1;size=15;fillColor=#f8cecc;strokeColor=#000000;" vertex="1" parent="1">
          <mxGeometry x="185" y="324" width="85" height="144" as="geometry" />
        </mxCell>
        <mxCell id="hcL190hoLd-GWTFzOgWW-3" value="&lt;font size=&quot;1&quot; face=&quot;Verdana&quot;&gt;&lt;b style=&quot;font-size: 14px;&quot;&gt;RegionServer的堆内存&lt;/b&gt;&lt;/font&gt;" style="text;html=1;align=center;verticalAlign=middle;resizable=0;points=[];autosize=1;strokeColor=none;fillColor=none;" vertex="1" parent="1">
          <mxGeometry x="132.5" y="120" width="190" height="30" as="geometry" />
        </mxCell>
        <mxCell id="hcL190hoLd-GWTFzOgWW-5" value="&lt;b style=&quot;font-size: 14px;&quot;&gt;40%分配&lt;br&gt;给写缓存&lt;/b&gt;" style="text;html=1;align=center;verticalAlign=middle;resizable=0;points=[];autosize=1;strokeColor=none;fillColor=none;" vertex="1" parent="1">
          <mxGeometry x="187.5" y="392" width="80" height="50" as="geometry" />
        </mxCell>
        <mxCell id="hcL190hoLd-GWTFzOgWW-6" value="" style="endArrow=none;dashed=1;html=1;dashPattern=1 3;strokeWidth=2;rounded=0;exitX=0;exitY=0;exitDx=0;exitDy=43.5;exitPerimeter=0;entryX=1;entryY=0;entryDx=0;entryDy=43.5;entryPerimeter=0;" edge="1" parent="1" source="hcL190hoLd-GWTFzOgWW-2" target="hcL190hoLd-GWTFzOgWW-2">
          <mxGeometry width="50" height="50" relative="1" as="geometry">
            <mxPoint x="360" y="380" as="sourcePoint" />
            <mxPoint x="410" y="330" as="targetPoint" />
          </mxGeometry>
        </mxCell>
        <mxCell id="hcL190hoLd-GWTFzOgWW-7" value="" style="endArrow=classic;html=1;rounded=0;" edge="1" parent="1">
          <mxGeometry width="50" height="50" relative="1" as="geometry">
            <mxPoint x="350" y="370" as="sourcePoint" />
            <mxPoint x="280" y="370" as="targetPoint" />
          </mxGeometry>
        </mxCell>
        <mxCell id="hcL190hoLd-GWTFzOgWW-9" value="&lt;b style=&quot;font-size: 14px;&quot;&gt;95%触发flush&lt;br&gt;&lt;/b&gt;" style="text;html=1;align=center;verticalAlign=middle;resizable=0;points=[];autosize=1;strokeColor=none;fillColor=none;" vertex="1" parent="1">
          <mxGeometry x="350" y="357" width="110" height="30" as="geometry" />
        </mxCell>
        <mxCell id="hcL190hoLd-GWTFzOgWW-10" value="" style="endArrow=classic;html=1;rounded=0;" edge="1" parent="1">
          <mxGeometry width="50" height="50" relative="1" as="geometry">
            <mxPoint x="120" y="340" as="sourcePoint" />
            <mxPoint x="170" y="340" as="targetPoint" />
          </mxGeometry>
        </mxCell>
        <mxCell id="hcL190hoLd-GWTFzOgWW-11" value="&lt;b style=&quot;font-size: 14px;&quot;&gt;100%阻塞客户端写&lt;br&gt;&lt;/b&gt;" style="text;html=1;align=center;verticalAlign=middle;resizable=0;points=[];autosize=1;strokeColor=none;fillColor=none;" vertex="1" parent="1">
          <mxGeometry x="-20" y="324" width="140" height="30" as="geometry" />
        </mxCell>
      </root>
    </mxGraphModel>
  </diagram>
</mxfile>
